# xmcd CD database file
#
# Track frame offsets:
#	150
#	15421
#	29140
#	46219
#	62557
#	84969
#	104989
#	121265
#	144721
#	162110
#	174266
#	190010
#	204388
#	218041
#	231214
#	245435
#	259413
#	277239
#	289602
#	305210
#	318511
#	341548
#
# Disc length: 4772 seconds
#
# Revision: 0
# Processed by: cddbd v1.5.2PL0 Copyright (c) Steve Scherf et al.
# Submitted via: CDex 1.70beta1
#
DISCID=4912a216
DTITLE=Archie Semple - Alex Welsh Big Four - Night People
DYEAR=1900
DGENRE=Jazz
TTITLE0=Carolina Moon (Archie Semple Trio) (The Archie Semple - Alex Welsh Big Four)
TTITLE1=Lady Sings The Blues (Archie Semple Trio) (The Archie Semple - Alex Welsh Big Four)
TTITLE2=I'll Get By (Archie Semple Trio) (The Archie Semple - Alex Welsh Big Four)
TTITLE3=Premier Bal (Archie Semple Trio) (The Archie Semple - Alex Welsh Big Four)
TTITLE4=What'll I Do? (Archie Semple Trio) (The Archie Semple - Alex Welsh Big Four)
TTITLE5=Deep Sleep (Archie Semple Trio) (The Archie Semple - Alex Welsh Big Four)
TTITLE6=Back In Your Own Backyard (Archie Semple Trio) (The Archie Semple - Alex Welsh Big Four)
TTITLE7=Night People (Archie Semple Trio) (The Archie Semple - Alex Welsh Big Four)
TTITLE8=After My Laughter Came Tears (Archie Semple Trio) (The Archie Semple - Alex Welsh Big Four)
TTITLE9=My Foolish Heart (Archie Semple Trio) (The Archie Semple - Alex Welsh Big Four)
TTITLE10=Solitariness (Archie Semple Trio) (The Archie Semple - Alex Welsh Big Four)
TTITLE11=Poor Butterfly (Archie Semple Trio) (The Archie Semple - Alex Welsh Big Four)
TTITLE12=Lullaby Of The Leaves (Archie Semple Trio) (The Archie Semple - Alex Welsh Big Four)
TTITLE13=Mean To Me (Archie Semple Trio) (The Archie Semple - Alex Welsh Big Four)
TTITLE14=She's Funny That Way (Archie Semple Trio) (The Archie Semple - Alex Welsh Big Four)
TTITLE15=Summer Is A-Comin' In (Archie Semple Trio) (The Archie Semple - Alex Welsh Big Four)
TTITLE16=Blues For Mesmer (Archie Semple Trio) (The Archie Semple - Alex Welsh Big Four)
TTITLE17=The One I Love Belongs To Somebody Else (Archie Semple Trio) (The Archie Semple - Alex Welsh Big Four)
TTITLE18=Sorry, Norrie (Archie Semple Trio) (The Archie Semple - Alex Welsh Big Four)
TTITLE19=They Didn't Believe Me (Archie Semple Trio) (The Archie Semple - Alex Welsh Big Four)
TTITLE20='m Confessin' (Archie Semple Trio) (The Archie Semple - Alex Welsh Big Four)
TTITLE21=Just Another Day (Archie Semple Trio) (The Archie Semple - Alex Welsh Big Four)
EXTD=
EXTT0=
EXTT1=
EXTT2=
EXTT3=
EXTT4=
EXTT5=
EXTT6=
EXTT7=
EXTT8=
EXTT9=
EXTT10=
EXTT11=
EXTT12=
EXTT13=
EXTT14=
EXTT15=
EXTT16=
EXTT17=
EXTT18=
EXTT19=
EXTT20=
EXTT21=
PLAYORDER=
